<svg xmlns="http://www.w3.org/2000/svg" x="0px" y="0px" width="100" height="100" viewBox="0 0 64 64">
<path d="M 23.773438 12 C 12.855437 12 12 12.854437 12 23.773438 L 12 40.226562 C 12 51.144563 12.855438 52 23.773438 52 L 40.226562 52 C 51.144563 52 52 51.144563 52 40.226562 L 52 24.970703 L 48 31.152344 L 48 42.832031 C 48 47.625031 47.624031 48 42.832031 48 L 21.167969 48 C 16.374969 48 16 47.624031 16 42.832031 L 16 21.167969 C 16 16.374969 16.374969 16 21.167969 16 L 42.832031 16 C 44.101031 16 45.053344 16.02825 45.777344 16.15625 L 48.068359 12.611328 C 46.326359 12.096328 43.825563 12 40.226562 12 L 23.773438 12 z M 50.962891 15.314453 C 50.321104 15.327373 49.695937 15.647188 49.320312 16.226562 L 34.798828 38.671875 L 25.777344 28.335938 C 25.052344 27.504938 23.789078 27.415578 22.955078 28.142578 C 22.123078 28.868578 22.036672 30.132844 22.763672 30.964844 L 33.527344 43.300781 C 33.908344 43.737781 34.460156 43.986328 35.035156 43.986328 C 35.083156 43.986328 35.129734 43.985422 35.177734 43.982422 C 35.804734 43.937422 36.373844 43.599266 36.714844 43.072266 L 52.679688 18.400391 C 53.279688 17.472391 53.014891 16.234766 52.087891 15.634766 C 51.739891 15.409766 51.347963 15.306701 50.962891 15.314453 z"></path>
</svg>